<?xml version="1.0" standalone="yes"?>

<svg version="1.1" viewBox="0.0 0.0 960.0 720.0" fill="none" stroke="none" stroke-linecap="square" stroke-miterlimit="10" xmlns="http://www.w3.org/2000/svg" xmlns:xlink="http://www.w3.org/1999/xlink">
  <defs>
    <style>
      .goat-body {
        fill: #ead1dc;
      }
      .goat-innards {
        fill: #e6b8af;
      }
      .goat-eye {
        fill: #ffe599;
      }
      .goat-horn {
        fill: #fce5cd;
      }
    </style>
  </defs>
  <clipPath id="p.0">
    <path d="m0 0l960.0 0l0 720.0l-960.0 0l0 -720.0z" clip-rule="nonzero"></path>
  </clipPath><g clip-path="url(#p.0)">
  <path fill="#000000" fill-opacity="0.0" d="m0 0l960.0 0l0 720.0l-960.0 0z" fill-rule="evenodd"></path>
  <path class="goat-body right-arm" d="m604.9873 395.11627c6.3828735 -1.4344482 22.76184 -5.377899 31.507263 2.5826416c8.745422 7.9605713 14.212891 24.852844 20.965332 45.180664c6.7524414 20.32779 16.345276 56.16147 19.549194 76.78613c3.2039185 20.624634 1.9508667 40.687744 -0.32574463 46.96173c-2.2766113 6.274048 -10.241211 -11.217529 -13.333801 -9.317627c-3.0926514 1.8998413 -1.3483276 21.230286 -5.221924 20.71698c-3.8736572 -0.5132446 -11.688538 -15.05481 -18.019897 -23.796753c-6.33136 -8.741882 -14.88324 -19.036194 -19.96814 -28.654724c-5.0849 -9.618591 -6.0999146 -16.358185 -10.54126 -29.056671c-4.441345 -12.698456 -14.206726 -32.098633 -16.106873 -47.134186c-1.9002075 -15.035522 2.789795 -34.03427 4.7057495 -43.07898c1.9160156 -9.044708 0.40722656 -9.754791 6.7901 -11.189209z" fill-rule="evenodd"></path>
  <path stroke="#000000" stroke-width="1.0" stroke-linejoin="round" stroke-linecap="butt" d="m604.9873 395.11627c6.3828735 -1.4344482 22.76184 -5.377899 31.507263 2.5826416c8.745422 7.9605713 14.212891 24.852844 20.965332 45.180664c6.7524414 20.32779 16.345276 56.16147 19.549194 76.78613c3.2039185 20.624634 1.9508667 40.687744 -0.32574463 46.96173c-2.2766113 6.274048 -10.241211 -11.217529 -13.333801 -9.317627c-3.0926514 1.8998413 -1.3483276 21.230286 -5.221924 20.71698c-3.8736572 -0.5132446 -11.688538 -15.05481 -18.019897 -23.796753c-6.33136 -8.741882 -14.88324 -19.036194 -19.96814 -28.654724c-5.0849 -9.618591 -6.0999146 -16.358185 -10.54126 -29.056671c-4.441345 -12.698456 -14.206726 -32.098633 -16.106873 -47.134186c-1.9002075 -15.035522 2.789795 -34.03427 4.7057495 -43.07898c1.9160156 -9.044708 0.40722656 -9.754791 6.7901 -11.189209z" fill-rule="evenodd"></path>
  <path class="goat-body left-arm" d="m353.88373 392.65994c-6.484314 -0.86642456 -23.146576 -3.3512878 -31.156342 5.3486633c-8.009796 8.699951 -11.967499 26.007874 -16.902405 46.851074c-4.934906 20.84317 -11.332886 57.381836 -12.707001 78.20807c-1.374115 20.826172 1.6418152 40.70038 4.4622803 46.749207c2.8204956 6.048889 9.212738 -12.075989 12.460663 -10.456055c3.2479248 1.6199951 3.213623 21.028442 7.0268555 20.175842c3.813263 -0.8526001 10.316284 -16.025757 15.8526 -25.29132c5.5362854 -9.265564 13.147736 -20.273071 17.365234 -30.302063c4.217499 -10.028931 4.634674 -16.831573 7.9397583 -29.871674c3.3051147 -13.04007 11.322876 -33.224762 11.890808 -48.368866c0.56796265 -15.144104 -5.777649 -33.655273 -8.483063 -42.495728c-2.7054138 -8.840485 -1.2651062 -9.680756 -7.7493896 -10.54715z" fill-rule="evenodd"></path>
  <path stroke="#000000" stroke-width="1.0" stroke-linejoin="round" stroke-linecap="butt" d="m353.88373 392.65994c-6.484314 -0.86642456 -23.146576 -3.3512878 -31.156342 5.3486633c-8.009796 8.699951 -11.967499 26.007874 -16.902405 46.851074c-4.934906 20.84317 -11.332886 57.381836 -12.707001 78.20807c-1.374115 20.826172 1.6418152 40.70038 4.4622803 46.749207c2.8204956 6.048889 9.212738 -12.075989 12.460663 -10.456055c3.2479248 1.6199951 3.213623 21.028442 7.0268555 20.175842c3.813263 -0.8526001 10.316284 -16.025757 15.8526 -25.29132c5.5362854 -9.265564 13.147736 -20.273071 17.365234 -30.302063c4.217499 -10.028931 4.634674 -16.831573 7.9397583 -29.871674c3.3051147 -13.04007 11.322876 -33.224762 11.890808 -48.368866c0.56796265 -15.144104 -5.777649 -33.655273 -8.483063 -42.495728c-2.7054138 -8.840485 -1.2651062 -9.680756 -7.7493896 -10.54715z" fill-rule="evenodd"></path>
  <path class="goat-body tail" d="m642.1425 592.00665c-15.060974 -13.92804 -58.909424 -66.7207 -69.7298 -68.019165c-10.820374 -1.298523 -1.3084106 46.703613 4.807495 60.228333c6.115967 13.524719 28.050354 19.751038 31.888062 20.919983c3.8376465 1.1688843 -11.885986 -15.173035 -8.861938 -13.906433c3.0239868 1.2666016 16.584045 18.78479 27.006104 21.50586c10.422058 2.7210693 33.044556 -1.7246704 35.526245 -5.1794434c2.4816895 -3.454712 -5.5751953 -1.6210938 -20.63617 -15.549133z" fill-rule="evenodd"></path>
  <path stroke="#000000" stroke-width="1.0" stroke-linejoin="round" stroke-linecap="butt" d="m642.1425 592.00665c-15.060974 -13.92804 -58.909424 -66.7207 -69.7298 -68.019165c-10.820374 -1.298523 -1.3084106 46.703613 4.807495 60.228333c6.115967 13.524719 28.050354 19.751038 31.888062 20.919983c3.8376465 1.1688843 -11.885986 -15.173035 -8.861938 -13.906433c3.0239868 1.2666016 16.584045 18.78479 27.006104 21.50586c10.422058 2.7210693 33.044556 -1.7246704 35.526245 -5.1794434c2.4816895 -3.454712 -5.5751953 -1.6210938 -20.63617 -15.549133z" fill-rule="evenodd"></path>
  <path class="goat-body right-leg" d="m512.3698 543.43353l31.307068 -2.7559204l0 0c8.303162 -0.730896 16.513916 1.8699951 22.825928 7.230591c6.3120728 5.3605957 10.208374 13.041687 10.831787 21.353638l10.058838 134.1087l-62.614197 5.51178z" fill-rule="evenodd"></path>
  <path stroke="#000000" stroke-width="1.0" stroke-linejoin="round" stroke-linecap="butt" d="m512.3698 543.43353l31.307068 -2.7559204l0 0c8.303162 -0.730896 16.513916 1.8699951 22.825928 7.230591c6.3120728 5.3605957 10.208374 13.041687 10.831787 21.353638l10.058838 134.1087l-62.614197 5.51178z" fill-rule="evenodd"></path>
  <path fill="#000000" fill-opacity="0.0" d="m565.6225 704.6626l-1.1653442 -22.42517" fill-rule="evenodd"></path>
  <path stroke="#000000" stroke-width="1.0" stroke-linejoin="round" stroke-linecap="butt" d="m565.6225 704.6626l-1.1653442 -22.42517" fill-rule="evenodd"></path>
  <path class="goat-body left-leg" d="m446.1913 543.43353l-31.307098 -2.7559204l0 0c-8.303162 -0.730896 -16.513885 1.8699951 -22.825928 7.230591c-6.3120728 5.3605957 -10.208374 13.041687 -10.831818 21.353638l-10.058777 134.1087l62.614166 5.51178z" fill-rule="evenodd"></path>
  <path stroke="#000000" stroke-width="1.0" stroke-linejoin="round" stroke-linecap="butt" d="m446.1913 543.43353l-31.307098 -2.7559204l0 0c-8.303162 -0.730896 -16.513885 1.8699951 -22.825928 7.230591c-6.3120728 5.3605957 -10.208374 13.041687 -10.831818 21.353638l-10.058777 134.1087l62.614166 5.51178z" fill-rule="evenodd"></path>
  <path fill="#000000" fill-opacity="0.0" d="m392.9386 704.6626l1.1653748 -22.42517" fill-rule="evenodd"></path>
  <path stroke="#000000" stroke-width="1.0" stroke-linejoin="round" stroke-linecap="butt" d="m392.9386 704.6626l1.1653748 -22.42517" fill-rule="evenodd"></path>
  <path class="goat-body torso" d="m328.70865 462.958l0 0c0 -98.8981 68.221954 -179.07086 152.37796 -179.07086l0 0c40.413147 0 79.17108 18.866333 107.7475 52.44864c28.576416 33.582306 44.630432 79.12967 44.630432 126.62222l0 0c0 98.89813 -68.221924 179.07086 -152.37793 179.07086l0 0c-84.156006 0 -152.37796 -80.17273 -152.37796 -179.07086z" fill-rule="evenodd"></path>
  <path stroke="#000000" stroke-width="1.0" stroke-linejoin="round" stroke-linecap="butt" d="m328.70865 462.958l0 0c0 -98.8981 68.221954 -179.07086 152.37796 -179.07086l0 0c40.413147 0 79.17108 18.866333 107.7475 52.44864c28.576416 33.582306 44.630432 79.12967 44.630432 126.62222l0 0c0 98.89813 -68.221924 179.07086 -152.37793 179.07086l0 0c-84.156006 0 -152.37796 -80.17273 -152.37796 -179.07086z" fill-rule="evenodd"></path>
  <path class="goat-body head" d="m287.02362 220.83727l0 0c0 -106.5779 86.39847 -192.97638 192.97638 -192.97638l0 0c51.180542 0 100.26483 20.331379 136.4549 56.52147c36.190125 36.190094 56.521484 85.27439 56.521484 136.4549l0 0c0 106.57793 -86.3985 192.9764 -192.97638 192.9764l0 0c-106.57791 0 -192.97638 -86.39847 -192.97638 -192.9764z" fill-rule="evenodd"></path>
  <path stroke="#000000" stroke-width="1.0" stroke-linejoin="round" stroke-linecap="butt" d="m287.02362 220.83727l0 0c0 -106.5779 86.39847 -192.97638 192.97638 -192.97638l0 0c51.180542 0 100.26483 20.331379 136.4549 56.52147c36.190125 36.190094 56.521484 85.27439 56.521484 136.4549l0 0c0 106.57793 -86.3985 192.9764 -192.97638 192.9764l0 0c-106.57791 0 -192.97638 -86.39847 -192.97638 -192.9764z" fill-rule="evenodd"></path>
  <path class="goat-body right-ear" d="m621.47375 121.00525c4.8131104 -5.9397583 18.342896 -26.053856 28.878662 -35.63855c10.535767 -9.584686 24.45343 -17.648285 34.33606 -21.869598c9.882629 -4.2213097 23.732056 -10.781876 24.959717 -3.458271c1.2276001 7.3236046 -10.423523 35.081234 -17.593872 47.3999c-7.170288 12.318657 -17.775208 20.572899 -25.4281 26.512062c-7.652954 5.9391785 -17.074524 7.602478 -20.48944 9.122971" fill-rule="evenodd"></path>
  <path stroke="#000000" stroke-width="1.0" stroke-linejoin="round" stroke-linecap="butt" d="m621.47375 121.00525c4.8131104 -5.9397583 18.342896 -26.053856 28.878662 -35.63855c10.535767 -9.584686 24.45343 -17.648285 34.33606 -21.869598c9.882629 -4.2213097 23.732056 -10.781876 24.959717 -3.458271c1.2276001 7.3236046 -10.423523 35.081234 -17.593872 47.3999c-7.170288 12.318657 -17.775208 20.572899 -25.4281 26.512062c-7.652954 5.9391785 -17.074524 7.602478 -20.48944 9.122971" fill-rule="evenodd"></path>
  <path class="goat-innards right-inner-ear" d="m670.7691 92.29958c-3.218628 2.194748 -13.141785 7.508003 -19.311584 13.168465c-6.169861 5.660469 -14.756226 17.328598 -17.707458 20.79432" fill-rule="evenodd"></path>
  <path stroke="#000000" stroke-width="1.0" stroke-linejoin="round" stroke-linecap="butt" d="m670.7691 92.29958c-3.218628 2.194748 -13.141785 7.508003 -19.311584 13.168465c-6.169861 5.660469 -14.756226 17.328598 -17.707458 20.79432" fill-rule="evenodd"></path>
  <path class="goat-body left-ear" d="m333.6532 119.64042c-4.8131104 -5.9397583 -18.342865 -26.053856 -28.878662 -35.63855c-10.535797 -9.584686 -24.45343 -17.648285 -34.33606 -21.869598c-9.882599 -4.2213097 -23.73204 -10.781876 -24.959686 -3.458271c-1.2276459 7.3236046 10.423492 35.081234 17.593811 47.3999c7.170349 12.318665 17.775238 20.572899 25.428162 26.51207c7.6529236 5.9391785 17.074524 7.602463 20.48941 9.122955" fill-rule="evenodd"></path>
  <path stroke="#000000" stroke-width="1.0" stroke-linejoin="round" stroke-linecap="butt" d="m333.6532 119.64042c-4.8131104 -5.9397583 -18.342865 -26.053856 -28.878662 -35.63855c-10.535797 -9.584686 -24.45343 -17.648285 -34.33606 -21.869598c-9.882599 -4.2213097 -23.73204 -10.781876 -24.959686 -3.458271c-1.2276459 7.3236046 10.423492 35.081234 17.593811 47.3999c7.170349 12.318665 17.775238 20.572899 25.428162 26.51207c7.6529236 5.9391785 17.074524 7.602463 20.48941 9.122955" fill-rule="evenodd"></path>
  <path class="goat-innards left-inner-ear" d="m284.35788 90.93475c3.2185974 2.194748 13.141754 7.508003 19.311584 13.168465c6.1698303 5.660469 14.756165 17.328598 17.707397 20.79432" fill-rule="evenodd"></path>
  <path stroke="#000000" stroke-width="1.0" stroke-linejoin="round" stroke-linecap="butt" d="m284.35788 90.93475c3.2185974 2.194748 13.141754 7.508003 19.311584 13.168465c6.1698303 5.660469 14.756165 17.328598 17.707397 20.79432" fill-rule="evenodd"></path>
  <path class="goat-body hair" d="m453.0761 31.829725c2.0485535 -3.4146996 7.9011536 -17.073492 12.291351 -20.48819c4.3901978 -3.4146981 12.098419 -2.048994 14.049866 0c1.9514465 2.048994 -3.902008 12.684164 -2.341217 12.2939625c1.5608215 -0.39019966 7.7060547 -12.195975 11.706055 -14.63517c4.0 -2.4391952 9.1719055 -1.9510059 12.293945 0c3.1220398 1.9510059 6.243225 7.608486 6.438324 11.7060375c0.19509888 4.0975494 -3.902008 9.659666 -5.2677307 12.879263c-1.3656921 3.2196007 -2.4387512 5.3652687 -2.9264832 6.43832" fill-rule="evenodd"></path>
  <path stroke="#000000" stroke-width="1.0" stroke-linejoin="round" stroke-linecap="butt" d="m453.0761 31.829725c2.0485535 -3.4146996 7.9011536 -17.073492 12.291351 -20.48819c4.3901978 -3.4146981 12.098419 -2.048994 14.049866 0c1.9514465 2.048994 -3.902008 12.684164 -2.341217 12.2939625c1.5608215 -0.39019966 7.7060547 -12.195975 11.706055 -14.63517c4.0 -2.4391952 9.1719055 -1.9510059 12.293945 0c3.1220398 1.9510059 6.243225 7.608486 6.438324 11.7060375c0.19509888 4.0975494 -3.902008 9.659666 -5.2677307 12.879263c-1.3656921 3.2196007 -2.4387512 5.3652687 -2.9264832 6.43832" fill-rule="evenodd"></path>
  <path class="goat-eye" fill="ffe599" d="m244.87927 248.77953l0 0c0 -53.65425 43.49536 -97.1496 97.1496 -97.1496l0 0c25.765686 0 50.476074 10.235367 68.69516 28.454453c18.219086 18.219086 28.454437 42.929474 28.454437 68.695145l0 0c0 53.65425 -43.49536 97.14961 -97.1496 97.14961l0 0c-53.654236 0 -97.1496 -43.49536 -97.1496 -97.14961z" fill-rule="evenodd"></path>
  <path stroke="#000000" stroke-width="1.0" stroke-linejoin="round" stroke-linecap="butt" d="m244.87927 248.77953l0 0c0 -53.65425 43.49536 -97.1496 97.1496 -97.1496l0 0c25.765686 0 50.476074 10.235367 68.69516 28.454453c18.219086 18.219086 28.454437 42.929474 28.454437 68.695145l0 0c0 53.65425 -43.49536 97.14961 -97.1496 97.14961l0 0c-53.654236 0 -97.1496 -43.49536 -97.1496 -97.14961z" fill-rule="evenodd"></path>
  <path fill="#000000" fill-opacity="0.0" d="m419.22308 341.9449l43.905518 37.259827" fill-rule="evenodd"></path>
  <path stroke="#000000" stroke-width="1.0" stroke-linejoin="round" stroke-linecap="butt" d="m419.22308 341.9449l43.905518 37.259827" fill-rule="evenodd"></path>
  <path fill="#000000" fill-opacity="0.0" d="m508.39108 376.54593l31.936981 -43.905518" fill-rule="evenodd"></path>
  <path stroke="#000000" stroke-width="1.0" stroke-linejoin="round" stroke-linecap="butt" d="m508.39108 376.54593l31.936981 -43.905518" fill-rule="evenodd"></path>
  <path fill="#000000" fill-opacity="0.0" d="m336.70865 200.87138l1.3228455 106.45671" fill-rule="evenodd"></path>
  <path stroke="#000000" stroke-width="1.0" stroke-linejoin="round" stroke-linecap="butt" d="m336.70865 200.87138l1.3228455 106.45671" fill-rule="evenodd"></path>
  <path class="goat-eye" d="m536.37006 248.77953l0 0c0 -53.65425 43.49536 -97.1496 97.14966 -97.1496l0 0c25.765625 0 50.476013 10.235367 68.69513 28.454453c18.219055 18.219086 28.454468 42.929474 28.454468 68.695145l0 0c0 53.65425 -43.49536 97.14961 -97.1496 97.14961l0 0c-53.654297 0 -97.14966 -43.49536 -97.14966 -97.14961z" fill-rule="evenodd"></path>
  <path stroke="#000000" stroke-width="1.0" stroke-linejoin="round" stroke-linecap="butt" d="m536.37006 248.77953l0 0c0 -53.65425 43.49536 -97.1496 97.14966 -97.1496l0 0c25.765625 0 50.476013 10.235367 68.69513 28.454453c18.219055 18.219086 28.454468 42.929474 28.454468 68.695145l0 0c0 53.65425 -43.49536 97.14961 -97.1496 97.14961l0 0c-53.654297 0 -97.14966 -43.49536 -97.14966 -97.14961z" fill-rule="evenodd"></path>
  <path fill="#000000" fill-opacity="0.0" d="m636.19946 200.87138l1.322876 106.45671" fill-rule="evenodd"></path>
  <path stroke="#000000" stroke-width="1.0" stroke-linejoin="round" stroke-linecap="butt" d="m636.19946 200.87138l1.322876 106.45671" fill-rule="evenodd"></path>
  <path fill="#000000" fill-opacity="0.0" d="m402.47476 706.1264l0 0" fill-rule="evenodd"></path>
  <path stroke="#000000" stroke-width="1.0" stroke-linejoin="round" stroke-linecap="butt" d="m402.47476 706.1264l0 0" fill-rule="evenodd"></path>
  <path fill="#000000" fill-opacity="0.0" d="m402.47476 706.1264l0 0" fill-rule="evenodd"></path>
  <path stroke="#000000" stroke-width="1.0" stroke-linejoin="round" stroke-linecap="butt" d="m402.47476 706.1264l0 0" fill-rule="evenodd"></path>
  <path class="goat-horn" d="m386.2082 72.6443c-2.1460876 -11.707348 -36.68286 -42.146545 -46.829376 -44.48819c-10.146545 -2.3416443 -16.195984 18.730972 -14.049896 30.43832c2.1461182 11.707348 16.779968 37.46413 26.926514 39.805775c10.146545 2.3416443 36.098877 -14.048553 33.95276 -25.755905z" fill-rule="evenodd"></path>
  <path stroke="#000000" stroke-width="1.0" stroke-linejoin="round" stroke-linecap="butt" d="m386.2082 72.6443c-2.1460876 -11.707348 -36.68286 -42.146545 -46.829376 -44.48819c-10.146545 -2.3416443 -16.195984 18.730972 -14.049896 30.43832c2.1461182 11.707348 16.779968 37.46413 26.926514 39.805775c10.146545 2.3416443 36.098877 -14.048553 33.95276 -25.755905z" fill-rule="evenodd"></path>
  <path stroke="#000000" stroke-width="1.0" stroke-linejoin="round" stroke-linecap="butt" d="m326.16534 63.74803c1.5612488 -0.487751 5.171936 -0.73140717 9.367462 -2.9265099c4.195526 -2.1950989 12.391083 -7.3171463 15.805786 -10.244095c3.4147034 -2.9269447 3.7069092 -5.512684 4.6824036 -7.317585c0.9754944 -1.8048973 0.9754944 -2.9265099 1.1705933 -3.5118103" fill-rule="evenodd"></path>
  <path stroke="#000000" stroke-width="1.0" stroke-linejoin="round" stroke-linecap="butt" d="m337.28873 84.52746c2.1922302 -0.59291077 8.866394 -1.9267349 13.153473 -3.5574646c4.287079 -1.630722 9.207611 -4.0528793 12.568939 -6.2268906c3.3613281 -2.1740036 5.845398 -4.4454956 7.5990295 -6.8171387c1.7536316 -2.371643 2.4355774 -5.23827 2.922699 -7.412716c0.48712158 -2.17445 0 -4.6949883 0 -5.6339836" fill-rule="evenodd"></path>
  <path class="goat-horn" d="m564.367 64.059c2.1461182 -11.707348 36.68286 -42.14654 46.829407 -44.488186c10.146545 -2.3416462 16.195923 18.730972 14.049866 30.43832c-2.1461182 11.707348 -16.779968 37.464127 -26.926514 39.80577c-10.146545 2.3416443 -36.098877 -14.048553 -33.95276 -25.755905z" fill-rule="evenodd"></path>
  <path stroke="#000000" stroke-width="1.0" stroke-linejoin="round" stroke-linecap="butt" d="m564.367 64.059c2.1461182 -11.707348 36.68286 -42.14654 46.829407 -44.488186c10.146545 -2.3416462 16.195923 18.730972 14.049866 30.43832c-2.1461182 11.707348 -16.779968 37.464127 -26.926514 39.80577c-10.146545 2.3416443 -36.098877 -14.048553 -33.95276 -25.755905z" fill-rule="evenodd"></path>
  <path stroke="#000000" stroke-width="1.0" stroke-linejoin="round" stroke-linecap="butt" d="m624.40985 55.16273c-1.5612793 -0.48775482 -5.171936 -0.731411 -9.367493 -2.9265099c-4.1954956 -2.1951027 -12.391052 -7.31715 -15.805725 -10.244095c-3.414734 -2.9269485 -3.7069702 -5.5126877 -4.682434 -7.317585c-0.9755249 -1.8049011 -0.9755249 -2.9265099 -1.1705933 -3.5118122" fill-rule="evenodd"></path>
  <path stroke="#000000" stroke-width="1.0" stroke-linejoin="round" stroke-linecap="butt" d="m613.2865 75.94216c-2.1922607 -0.59291077 -8.866455 -1.9267426 -13.153503 -3.5574646c-4.2870483 -1.6307297 -9.207642 -4.052887 -12.56897 -6.2268906c-3.3613281 -2.1740112 -5.845398 -4.445503 -7.598999 -6.8171463c-1.7536621 -2.371643 -2.435608 -5.238266 -2.9227295 -7.412716c-0.48712158 -2.17445 0 -4.6949844 0 -5.63398" fill-rule="evenodd"></path>
  <path fill="#000000" fill-opacity="0.0" d="m479.80643 448.60892c-3.5118103 4.0975647 -19.412506 19.51181 -21.070862 24.585297c-1.6583557 5.073517 7.804016 5.563019 11.120728 5.855652c3.3167114 0.29266357 8.389313 -4.9776917 8.7795105 -4.0997314c0.39019775 0.8779602 -5.852997 6.245392 -6.438324 9.367462c-0.58529663 3.1220398 1.4632568 8.291779 2.9265137 9.364807c1.4632568 1.0730591 4.877533 -2.4387512 5.8530273 -2.9264832" fill-rule="evenodd"></path>
  <path stroke="#000000" stroke-width="1.0" stroke-linejoin="round" stroke-linecap="butt" d="m479.80643 448.60892c-3.5118103 4.0975647 -19.412506 19.51181 -21.070862 24.585297c-1.6583557 5.073517 7.804016 5.563019 11.120728 5.855652c3.3167114 0.29266357 8.389313 -4.9776917 8.7795105 -4.0997314c0.39019775 0.8779602 -5.852997 6.245392 -6.438324 9.367462c-0.58529663 3.1220398 1.4632568 8.291779 2.9265137 9.364807c1.4632568 1.0730591 4.877533 -2.4387512 5.8530273 -2.9264832" fill-rule="evenodd"></path>
</g></svg>