<?xml version="1.0" standalone="yes"?>

<svg version="1.1" viewBox="0.0 0.0 960.0 720.0" fill="none" stroke="none" stroke-linecap="square" stroke-miterlimit="10" xmlns="http://www.w3.org/2000/svg" xmlns:xlink="http://www.w3.org/1999/xlink"><clipPath id="p.0"><path d="m0 0l960.0 0l0 720.0l-960.0 0l0 -720.0z" clip-rule="nonzero"></path></clipPath><g clip-path="url(#p.0)"><path fill="#000000" fill-opacity="0.0" d="m0 0l960.0 0l0 720.0l-960.0 0z" fill-rule="evenodd"></path><path fill="#d9d2e9" d="m595.15906 533.5276c13.093445 -4.444458 32.871338 -6.2734375 43.45746 1.569519c10.58606 7.8429565 15.0442505 30.847778 20.059021 45.48822c5.0147095 14.640381 5.5722046 37.12555 10.02948 42.35431c4.4572754 5.22876 15.599426 2.3516846 16.71399 -10.981628c1.114563 -13.333313 -3.3408203 -50.19513 -10.026733 -69.01837c-6.685852 -18.823303 -21.73059 -24.836426 -30.088501 -43.921265c-8.35791 -19.08487 -22.566406 -50.457123 -20.059021 -70.58792c2.5073853 -20.130798 15.880554 -36.863525 35.10327 -50.19687c19.222778 -13.333313 53.48883 -35.03192 80.23328 -29.803131c26.744385 5.2287903 67.69684 41.829407 80.233215 61.175842c12.536438 19.346466 0.5570679 44.445312 -5.0147705 54.902893c-5.5717773 10.457581 -22.56543 13.332886 -28.415955 7.8425293c-5.850586 -5.490387 -1.6725464 -28.496948 -6.687317 -40.78479c-5.0147095 -12.287842 -13.372192 -26.406372 -23.401245 -32.94226c-10.028992 -6.535858 -24.236572 -10.979004 -36.77295 -6.272949c-12.536438 4.706024 -35.102356 19.346008 -38.445496 34.509186c-3.3432007 15.163147 8.357422 31.11023 18.386475 56.46982c10.029053 25.359558 38.723328 69.80533 41.78772 95.68765c3.0644531 25.882324 -14.765015 45.488647 -23.401245 59.606323c-8.636169 14.117676 -14.208008 21.17804 -28.415955 25.099731c-14.208008 3.921692 -44.57434 9.149597 -56.83203 -1.5695801c-12.25769 -10.719177 -4.456299 -46.01355 -16.71399 -62.745422c-12.257629 -16.731812 -53.21051 -26.665344 -56.83197 -37.64563c-3.62146 -10.980347 22.009827 -23.79181 35.10327 -28.236206z" fill-rule="evenodd"></path><path stroke="#000000" stroke-width="1.0" stroke-linejoin="round" stroke-linecap="butt" d="m595.15906 533.5276c13.093445 -4.444458 32.871338 -6.2734375 43.45746 1.569519c10.58606 7.8429565 15.0442505 30.847778 20.059021 45.48822c5.0147095 14.640381 5.5722046 37.12555 10.02948 42.35431c4.4572754 5.22876 15.599426 2.3516846 16.71399 -10.981628c1.114563 -13.333313 -3.3408203 -50.19513 -10.026733 -69.01837c-6.685852 -18.823303 -21.73059 -24.836426 -30.088501 -43.921265c-8.35791 -19.08487 -22.566406 -50.457123 -20.059021 -70.58792c2.5073853 -20.130798 15.880554 -36.863525 35.10327 -50.19687c19.222778 -13.333313 53.48883 -35.03192 80.23328 -29.803131c26.744385 5.2287903 67.69684 41.829407 80.233215 61.175842c12.536438 19.346466 0.5570679 44.445312 -5.0147705 54.902893c-5.5717773 10.457581 -22.56543 13.332886 -28.415955 7.8425293c-5.850586 -5.490387 -1.6725464 -28.496948 -6.687317 -40.78479c-5.0147095 -12.287842 -13.372192 -26.406372 -23.401245 -32.94226c-10.028992 -6.535858 -24.236572 -10.979004 -36.77295 -6.272949c-12.536438 4.706024 -35.102356 19.346008 -38.445496 34.509186c-3.3432007 15.163147 8.357422 31.11023 18.386475 56.46982c10.029053 25.359558 38.723328 69.80533 41.78772 95.68765c3.0644531 25.882324 -14.765015 45.488647 -23.401245 59.606323c-8.636169 14.117676 -14.208008 21.17804 -28.415955 25.099731c-14.208008 3.921692 -44.57434 9.149597 -56.83203 -1.5695801c-12.25769 -10.719177 -4.456299 -46.01355 -16.71399 -62.745422c-12.257629 -16.731812 -53.21051 -26.665344 -56.83197 -37.64563c-3.62146 -10.980347 22.009827 -23.79181 35.10327 -28.236206z" fill-rule="evenodd"></path><path fill="#d9d2e9" d="m531.1754 563.8046c16.44873 -10.934326 45.447388 -30.458435 62.140015 -27.177673c16.692566 3.2807617 35.33496 28.117554 38.01544 46.862183c2.680542 18.74469 -16.571045 52.01599 -21.932495 65.605835c-5.361389 13.589844 -15.10968 13.277771 -10.235962 15.93335c4.8737793 2.6555176 32.4115 -6.0926514 39.478516 0c7.0669556 6.0925903 21.443604 29.99469 2.923462 36.555725c-18.52008 6.560974 -94.42749 10.152222 -114.04401 2.8102417c-19.616486 -7.34198 -8.041077 -37.020935 -3.6549683 -46.862183c4.3860474 -9.841248 31.433655 -9.373352 29.971497 -12.185242c-1.4621582 -2.8118286 -28.875488 2.499817 -38.744507 -4.685913c-9.869019 -7.185669 -23.150024 -25.618774 -20.469513 -38.42816c2.6805115 -12.809387 20.10373 -27.493896 36.55252 -38.42816z" fill-rule="evenodd"></path><path stroke="#000000" stroke-width="1.0" stroke-linejoin="round" stroke-linecap="butt" d="m531.1754 563.8046c16.44873 -10.934326 45.447388 -30.458435 62.140015 -27.177673c16.692566 3.2807617 35.33496 28.117554 38.01544 46.862183c2.680542 18.74469 -16.571045 52.01599 -21.932495 65.605835c-5.361389 13.589844 -15.10968 13.277771 -10.235962 15.93335c4.8737793 2.6555176 32.4115 -6.0926514 39.478516 0c7.0669556 6.0925903 21.443604 29.99469 2.923462 36.555725c-18.52008 6.560974 -94.42749 10.152222 -114.04401 2.8102417c-19.616486 -7.34198 -8.041077 -37.020935 -3.6549683 -46.862183c4.3860474 -9.841248 31.433655 -9.373352 29.971497 -12.185242c-1.4621582 -2.8118286 -28.875488 2.499817 -38.744507 -4.685913c-9.869019 -7.185669 -23.150024 -25.618774 -20.469513 -38.42816c2.6805115 -12.809387 20.10373 -27.493896 36.55252 -38.42816z" fill-rule="evenodd"></path><path fill="#000000" fill-opacity="0.0" d="m626.85925 681.70776c2.222229 -0.19592285 9.673218 -1.3718262 13.333313 -1.1758423c3.6600952 0.19598389 7.189392 1.9597778 8.627319 2.3517456" fill-rule="evenodd"></path><path stroke="#000000" stroke-width="1.0" stroke-linejoin="round" stroke-linecap="butt" d="m626.85925 681.70776c2.222229 -0.19592285 9.673218 -1.3718262 13.333313 -1.1758423c3.6600952 0.19598389 7.189392 1.9597778 8.627319 2.3517456" fill-rule="evenodd"></path><path fill="#000000" fill-opacity="0.0" d="m627.64404 669.94403c1.6990356 -0.19598389 7.5144043 -1.3718262 10.194214 -1.1759033c2.6797485 0.19598389 4.9037476 1.9597778 5.8845215 2.3517456" fill-rule="evenodd"></path><path stroke="#000000" stroke-width="1.0" stroke-linejoin="round" stroke-linecap="butt" d="m627.64404 669.94403c1.6990356 -0.19598389 7.5144043 -1.3718262 10.194214 -1.1759033c2.6797485 0.19598389 4.9037476 1.9597778 5.8845215 2.3517456" fill-rule="evenodd"></path><path fill="#d9d2e9" d="m444.31113 561.31116c-16.44873 -10.934326 -45.44742 -30.458374 -62.139984 -27.177612c-16.692596 3.2807617 -35.33499 28.117493 -38.015503 46.862183c-2.6805115 18.74469 16.571075 52.01593 21.932495 65.605835c5.361389 13.589844 15.109711 13.277771 10.235962 15.933289c-4.873749 2.6555786 -32.41147 -6.0925903 -39.478455 0c-7.0670166 6.0926514 -21.443604 29.994751 -2.923523 36.555725c18.52008 6.561035 94.42752 10.152283 114.04401 2.8103027c19.616516 -7.34198 8.041107 -37.020935 3.6550293 -46.862183c-4.3861084 -9.841248 -31.433716 -9.373413 -29.971558 -12.185242c1.4621582 -2.8118896 28.87555 2.4997559 38.744537 -4.685913c9.869019 -7.185669 23.150024 -25.618774 20.469513 -38.428223c-2.6805115 -12.809387 -20.10376 -27.493835 -36.55252 -38.42816z" fill-rule="evenodd"></path><path stroke="#000000" stroke-width="1.0" stroke-linejoin="round" stroke-linecap="butt" d="m444.31113 561.31116c-16.44873 -10.934326 -45.44742 -30.458374 -62.139984 -27.177612c-16.692596 3.2807617 -35.33499 28.117493 -38.015503 46.862183c-2.6805115 18.74469 16.571075 52.01593 21.932495 65.605835c5.361389 13.589844 15.109711 13.277771 10.235962 15.933289c-4.873749 2.6555786 -32.41147 -6.0925903 -39.478455 0c-7.0670166 6.0926514 -21.443604 29.994751 -2.923523 36.555725c18.52008 6.561035 94.42752 10.152283 114.04401 2.8103027c19.616516 -7.34198 8.041107 -37.020935 3.6550293 -46.862183c-4.3861084 -9.841248 -31.433716 -9.373413 -29.971558 -12.185242c1.4621582 -2.8118896 28.87555 2.4997559 38.744537 -4.685913c9.869019 -7.185669 23.150024 -25.618774 20.469513 -38.428223c-2.6805115 -12.809387 -20.10376 -27.493835 -36.55252 -38.42816z" fill-rule="evenodd"></path><path fill="#000000" fill-opacity="0.0" d="m348.6273 679.21436c-2.222229 -0.19598389 -9.673218 -1.3718262 -13.333313 -1.1758423c-3.6601257 0.19598389 -7.1894226 1.9597168 -8.627319 2.3516846" fill-rule="evenodd"></path><path stroke="#000000" stroke-width="1.0" stroke-linejoin="round" stroke-linecap="butt" d="m348.6273 679.21436c-2.222229 -0.19598389 -9.673218 -1.3718262 -13.333313 -1.1758423c-3.6601257 0.19598389 -7.1894226 1.9597168 -8.627319 2.3516846" fill-rule="evenodd"></path><path fill="#000000" fill-opacity="0.0" d="m347.84253 667.45056c-1.6990356 -0.19598389 -7.514435 -1.3718262 -10.194244 -1.1758423c-2.679779 0.19598389 -4.9037476 1.9597778 -5.884491 2.3516846" fill-rule="evenodd"></path><path stroke="#000000" stroke-width="1.0" stroke-linejoin="round" stroke-linecap="butt" d="m347.84253 667.45056c-1.6990356 -0.19598389 -7.514435 -1.3718262 -10.194244 -1.1758423c-2.679779 0.19598389 -4.9037476 1.9597778 -5.884491 2.3516846" fill-rule="evenodd"></path><path fill="#d9d2e9" d="m616.4083 376.62335c-8.627258 4.052063 -29.27948 1.9597473 -28.233582 29.018372c1.0459595 27.058624 26.273865 106.40509 34.509216 133.33331c8.235352 26.928284 8.105408 24.445374 14.902893 28.236267c6.7974243 3.7908936 20.261108 -2.484253 25.881897 -5.4908447c5.6207275 -3.0065308 7.0581665 -5.359131 7.8424683 -12.548523c0.7843628 -7.189453 -0.52227783 -9.934387 -3.1364746 -30.587952c-2.6141357 -20.653534 -7.8425293 -70.45755 -12.548523 -93.33331c-4.7060547 -22.875793 -9.151367 -35.81671 -15.687683 -43.921265c-6.536316 -8.104553 -14.902893 -8.758118 -23.530212 -4.7060547z" fill-rule="evenodd"></path><path stroke="#000000" stroke-width="1.0" stroke-linejoin="round" stroke-linecap="butt" d="m616.4083 376.62335c-8.627258 4.052063 -29.27948 1.9597473 -28.233582 29.018372c1.0459595 27.058624 26.273865 106.40509 34.509216 133.33331c8.235352 26.928284 8.105408 24.445374 14.902893 28.236267c6.7974243 3.7908936 20.261108 -2.484253 25.881897 -5.4908447c5.6207275 -3.0065308 7.0581665 -5.359131 7.8424683 -12.548523c0.7843628 -7.189453 -0.52227783 -9.934387 -3.1364746 -30.587952c-2.6141357 -20.653534 -7.8425293 -70.45755 -12.548523 -93.33331c-4.7060547 -22.875793 -9.151367 -35.81671 -15.687683 -43.921265c-6.536316 -8.104553 -14.902893 -8.758118 -23.530212 -4.7060547z" fill-rule="evenodd"></path><path fill="#000000" fill-opacity="0.0" d="m649.5044 550.437l3.1495972 14.1102295" fill-rule="evenodd"></path><path stroke="#000000" stroke-width="1.0" stroke-linejoin="round" stroke-linecap="butt" d="m649.5044 550.437l3.1495972 14.1102295" fill-rule="evenodd"></path><path fill="#000000" fill-opacity="0.0" d="m663.6225 544.16144l3.1495972 14.1102295" fill-rule="evenodd"></path><path stroke="#000000" stroke-width="1.0" stroke-linejoin="round" stroke-linecap="butt" d="m663.6225 544.16144l3.1495972 14.1102295" fill-rule="evenodd"></path><path fill="#d9d2e9" d="m340.54745 387.75592c8.627319 4.0520325 29.279541 1.9597473 28.233612 29.018372c-1.045929 27.058594 -26.273834 106.40509 -34.509186 133.33331c-8.235352 26.928284 -8.105438 24.445312 -14.902893 28.236206c-6.797455 3.7908936 -20.26117 -2.484253 -25.881897 -5.4907837c-5.6207275 -3.0065918 -7.0581665 -5.359131 -7.8425293 -12.548584c-0.7843323 -7.189392 0.52230835 -9.934387 3.1365051 -30.58789c2.6141663 -20.653564 7.842499 -70.45758 12.548553 -93.33334c4.706024 -22.875763 9.151337 -35.81671 15.687653 -43.921265c6.536316 -8.104553 14.902893 -8.758087 23.530182 -4.706024z" fill-rule="evenodd"></path><path stroke="#000000" stroke-width="1.0" stroke-linejoin="round" stroke-linecap="butt" d="m340.54745 387.75592c8.627319 4.0520325 29.279541 1.9597473 28.233612 29.018372c-1.045929 27.058594 -26.273834 106.40509 -34.509186 133.33331c-8.235352 26.928284 -8.105438 24.445312 -14.902893 28.236206c-6.797455 3.7908936 -20.26117 -2.484253 -25.881897 -5.4907837c-5.6207275 -3.0065918 -7.0581665 -5.359131 -7.8425293 -12.548584c-0.7843323 -7.189392 0.52230835 -9.934387 3.1365051 -30.58789c2.6141663 -20.653564 7.842499 -70.45758 12.548553 -93.33334c4.706024 -22.875763 9.151337 -35.81671 15.687653 -43.921265c6.536316 -8.104553 14.902893 -8.758087 23.530182 -4.706024z" fill-rule="evenodd"></path><path fill="#d9d2e9" d="m343.2152 462.958l0 0c0 -98.8981 61.389893 -179.07086 137.11813 -179.07086l0 0c36.365997 0 71.24252 18.866333 96.95712 52.44864c25.71466 33.582306 40.16095 79.12967 40.16095 126.62222l0 0c0 98.89813 -61.38983 179.07086 -137.11807 179.07086l0 0c-75.72824 0 -137.11813 -80.17273 -137.11813 -179.07086z" fill-rule="evenodd"></path><path stroke="#000000" stroke-width="1.0" stroke-linejoin="round" stroke-linecap="butt" d="m343.2152 462.958l0 0c0 -98.8981 61.389893 -179.07086 137.11813 -179.07086l0 0c36.365997 0 71.24252 18.866333 96.95712 52.44864c25.71466 33.582306 40.16095 79.12967 40.16095 126.62222l0 0c0 98.89813 -61.38983 179.07086 -137.11807 179.07086l0 0c-75.72824 0 -137.11813 -80.17273 -137.11813 -179.07086z" fill-rule="evenodd"></path><path fill="#d9d2e9" d="m287.02362 203.53018l0 0c0 -97.01947 86.39847 -175.66928 192.97638 -175.66928l0 0c106.57788 0 192.97638 78.64982 192.97638 175.66928l0 0c0 97.01947 -86.3985 175.66928 -192.97638 175.66928l0 0c-106.57791 0 -192.97638 -78.64981 -192.97638 -175.66928z" fill-rule="evenodd"></path><path stroke="#000000" stroke-width="1.0" stroke-linejoin="round" stroke-linecap="butt" d="m287.02362 203.53018l0 0c0 -97.01947 86.39847 -175.66928 192.97638 -175.66928l0 0c106.57788 0 192.97638 78.64982 192.97638 175.66928l0 0c0 97.01947 -86.3985 175.66928 -192.97638 175.66928l0 0c-106.57791 0 -192.97638 -78.64981 -192.97638 -175.66928z" fill-rule="evenodd"></path><path fill="#000000" fill-opacity="0.0" d="m419.22308 341.9449l43.905518 37.259827" fill-rule="evenodd"></path><path stroke="#000000" stroke-width="1.0" stroke-linejoin="round" stroke-linecap="butt" d="m419.22308 341.9449l43.905518 37.259827" fill-rule="evenodd"></path><path fill="#000000" fill-opacity="0.0" d="m508.39108 376.54593l31.936981 -43.905518" fill-rule="evenodd"></path><path stroke="#000000" stroke-width="1.0" stroke-linejoin="round" stroke-linecap="butt" d="m508.39108 376.54593l31.936981 -43.905518" fill-rule="evenodd"></path><path fill="#000000" fill-opacity="0.0" d="m402.47476 706.1264l0 0" fill-rule="evenodd"></path><path stroke="#000000" stroke-width="1.0" stroke-linejoin="round" stroke-linecap="butt" d="m402.47476 706.1264l0 0" fill-rule="evenodd"></path><path fill="#000000" fill-opacity="0.0" d="m402.47476 706.1264l0 0" fill-rule="evenodd"></path><path stroke="#000000" stroke-width="1.0" stroke-linejoin="round" stroke-linecap="butt" d="m402.47476 706.1264l0 0" fill-rule="evenodd"></path><path fill="#000000" fill-opacity="0.0" d="m479.80643 448.60892c-3.5118103 4.0975647 -19.412506 19.51181 -21.070862 24.585297c-1.6583557 5.073517 7.804016 5.563019 11.120728 5.855652c3.3167114 0.29266357 8.389313 -4.9776917 8.7795105 -4.0997314c0.39019775 0.8779602 -5.852997 6.245392 -6.438324 9.367462c-0.58529663 3.1220398 1.4632568 8.291779 2.9265137 9.364807c1.4632568 1.0730591 4.877533 -2.4387512 5.8530273 -2.9264832" fill-rule="evenodd"></path><path stroke="#000000" stroke-width="1.0" stroke-linejoin="round" stroke-linecap="butt" d="m479.80643 448.60892c-3.5118103 4.0975647 -19.412506 19.51181 -21.070862 24.585297c-1.6583557 5.073517 7.804016 5.563019 11.120728 5.855652c3.3167114 0.29266357 8.389313 -4.9776917 8.7795105 -4.0997314c0.39019775 0.8779602 -5.852997 6.245392 -6.438324 9.367462c-0.58529663 3.1220398 1.4632568 8.291779 2.9265137 9.364807c1.4632568 1.0730591 4.877533 -2.4387512 5.8530273 -2.9264832" fill-rule="evenodd"></path><path fill="#d9d2e9" d="m453.0761 31.829725c2.0485535 -3.4146996 7.9011536 -17.073492 12.291351 -20.48819c4.3901978 -3.4146981 12.098419 -2.048994 14.049866 0c1.9514465 2.048994 -3.902008 12.684164 -2.341217 12.2939625c1.5608215 -0.39019966 7.7060547 -12.195975 11.706055 -14.63517c4.0 -2.4391952 9.1719055 -1.9510059 12.293945 0c3.1220398 1.9510059 6.243225 7.608486 6.438324 11.7060375c0.19509888 4.0975494 -3.902008 9.659666 -5.2677307 12.879263c-1.3656921 3.2196007 -2.4387512 5.3652687 -2.9264832 6.43832" fill-rule="evenodd"></path><path stroke="#000000" stroke-width="1.0" stroke-linejoin="round" stroke-linecap="butt" d="m453.0761 31.829725c2.0485535 -3.4146996 7.9011536 -17.073492 12.291351 -20.48819c4.3901978 -3.4146981 12.098419 -2.048994 14.049866 0c1.9514465 2.048994 -3.902008 12.684164 -2.341217 12.2939625c1.5608215 -0.39019966 7.7060547 -12.195975 11.706055 -14.63517c4.0 -2.4391952 9.1719055 -1.9510059 12.293945 0c3.1220398 1.9510059 6.243225 7.608486 6.438324 11.7060375c0.19509888 4.0975494 -3.902008 9.659666 -5.2677307 12.879263c-1.3656921 3.2196007 -2.4387512 5.3652687 -2.9264832 6.43832" fill-rule="evenodd"></path><path fill="#d9d2e9" d="m583.84503 60.94744c6.854553 -4.033081 35.36389 -21.88419 41.12744 -24.19849c5.763611 -2.3143044 -9.709778 11.097076 -6.5460205 10.312675c3.1636963 -0.78440094 14.248535 -17.61154 25.528381 -15.019077c11.279907 2.5924644 33.480774 14.141327 42.150757 30.57386c8.670044 16.432533 15.948669 54.446968 9.869263 68.02135c-6.0794067 13.574387 -35.686523 12.229401 -46.345764 13.424957c-10.659241 1.1955566 -14.674744 -5.2096863 -17.60968 -6.2516327" fill-rule="evenodd"></path><path stroke="#000000" stroke-width="1.0" stroke-linejoin="round" stroke-linecap="butt" d="m583.84503 60.94744c6.854553 -4.033081 35.36389 -21.88419 41.12744 -24.19849c5.763611 -2.3143044 -9.709778 11.097076 -6.5460205 10.312675c3.1636963 -0.78440094 14.248535 -17.61154 25.528381 -15.019077c11.279907 2.5924644 33.480774 14.141327 42.150757 30.57386c8.670044 16.432533 15.948669 54.446968 9.869263 68.02135c-6.0794067 13.574387 -35.686523 12.229401 -46.345764 13.424957c-10.659241 1.1955566 -14.674744 -5.2096863 -17.60968 -6.2516327" fill-rule="evenodd"></path><path fill="#000000" fill-opacity="0.0" d="m307.45145 561.5696l-3.1495972 14.1102295" fill-rule="evenodd"></path><path stroke="#000000" stroke-width="1.0" stroke-linejoin="round" stroke-linecap="butt" d="m307.45145 561.5696l-3.1495972 14.1102295" fill-rule="evenodd"></path><path fill="#000000" fill-opacity="0.0" d="m293.33334 555.29395l-3.1496277 14.1102295" fill-rule="evenodd"></path><path stroke="#000000" stroke-width="1.0" stroke-linejoin="round" stroke-linecap="butt" d="m293.33334 555.29395l-3.1496277 14.1102295" fill-rule="evenodd"></path><path fill="#ffe599" d="m244.87927 248.77953l0 0c0 -53.65425 43.49536 -97.1496 97.1496 -97.1496l0 0c25.765686 0 50.476074 10.235367 68.69516 28.454453c18.219086 18.219086 28.454437 42.929474 28.454437 68.695145l0 0c0 53.65425 -43.49536 97.14961 -97.1496 97.14961l0 0c-53.654236 0 -97.1496 -43.49536 -97.1496 -97.14961z" fill-rule="evenodd"></path><path stroke="#000000" stroke-width="1.0" stroke-linejoin="round" stroke-linecap="butt" d="m244.87927 248.77953l0 0c0 -53.65425 43.49536 -97.1496 97.1496 -97.1496l0 0c25.765686 0 50.476074 10.235367 68.69516 28.454453c18.219086 18.219086 28.454437 42.929474 28.454437 68.695145l0 0c0 53.65425 -43.49536 97.14961 -97.1496 97.14961l0 0c-53.654236 0 -97.1496 -43.49536 -97.1496 -97.14961z" fill-rule="evenodd"></path><path fill="#ffe599" d="m536.37006 248.77953l0 0c0 -53.65425 43.49536 -97.1496 97.14966 -97.1496l0 0c25.765625 0 50.476013 10.235367 68.69513 28.454453c18.219055 18.219086 28.454468 42.929474 28.454468 68.695145l0 0c0 53.65425 -43.49536 97.14961 -97.1496 97.14961l0 0c-53.654297 0 -97.14966 -43.49536 -97.14966 -97.14961z" fill-rule="evenodd"></path><path stroke="#000000" stroke-width="1.0" stroke-linejoin="round" stroke-linecap="butt" d="m536.37006 248.77953l0 0c0 -53.65425 43.49536 -97.1496 97.14966 -97.1496l0 0c25.765625 0 50.476013 10.235367 68.69513 28.454453c18.219055 18.219086 28.454468 42.929474 28.454468 68.695145l0 0c0 53.65425 -43.49536 97.14961 -97.1496 97.14961l0 0c-53.654297 0 -97.14966 -43.49536 -97.14966 -97.14961z" fill-rule="evenodd"></path><path fill="#666666" d="m324.70602 257.51968l0 0c0 -6.2099457 5.0341797 -11.244095 11.24411 -11.244095l0 0c2.9821167 0 5.842102 1.1846466 7.950775 3.2933197c2.108673 2.108673 3.2933044 4.9686584 3.2933044 7.950775l0 0c0 6.2099304 -5.034149 11.24411 -11.24408 11.24411l0 0c-6.2099304 0 -11.24411 -5.0341797 -11.24411 -11.24411z" fill-rule="evenodd"></path><path stroke="#000000" stroke-width="1.0" stroke-linejoin="round" stroke-linecap="butt" d="m324.70602 257.51968l0 0c0 -6.2099457 5.0341797 -11.244095 11.24411 -11.244095l0 0c2.9821167 0 5.842102 1.1846466 7.950775 3.2933197c2.108673 2.108673 3.2933044 4.9686584 3.2933044 7.950775l0 0c0 6.2099304 -5.034149 11.24411 -11.24408 11.24411l0 0c-6.2099304 0 -11.24411 -5.0341797 -11.24411 -11.24411z" fill-rule="evenodd"></path><path fill="#666666" d="m630.27295 257.51968l0 0c0 -6.2099457 5.0341797 -11.244095 11.244141 -11.244095l0 0c2.9821167 0 5.842041 1.1846466 7.9507446 3.2933197c2.1087036 2.108673 3.293335 4.9686584 3.293335 7.950775l0 0c0 6.2099304 -5.0341797 11.24411 -11.24408 11.24411l0 0c-6.209961 0 -11.244141 -5.0341797 -11.244141 -11.24411z" fill-rule="evenodd"></path><path stroke="#000000" stroke-width="1.0" stroke-linejoin="round" stroke-linecap="butt" d="m630.27295 257.51968l0 0c0 -6.2099457 5.0341797 -11.244095 11.244141 -11.244095l0 0c2.9821167 0 5.842041 1.1846466 7.9507446 3.2933197c2.1087036 2.108673 3.293335 4.9686584 3.293335 7.950775l0 0c0 6.2099304 -5.0341797 11.24411 -11.24408 11.24411l0 0c-6.209961 0 -11.244141 -5.0341797 -11.244141 -11.24411z" fill-rule="evenodd"></path><path fill="#d9d2e9" d="m376.75424 60.94744c-6.854553 -4.033081 -35.36389 -21.88419 -41.12744 -24.19849c-5.7635803 -2.3143044 9.709778 11.097076 6.546051 10.312675c-3.1637268 -0.78440094 -14.248566 -17.61154 -25.528442 -15.019077c-11.279846 2.5924644 -33.480743 14.141327 -42.150757 30.57386c-8.669983 16.432533 -15.948639 54.446968 -9.869202 68.02135c6.0794067 13.574387 35.686493 12.229401 46.345734 13.424957c10.659241 1.1955566 14.674744 -5.2096863 17.60971 -6.2516327" fill-rule="evenodd"></path><path stroke="#000000" stroke-width="1.0" stroke-linejoin="round" stroke-linecap="butt" d="m376.75424 60.94744c-6.854553 -4.033081 -35.36389 -21.88419 -41.12744 -24.19849c-5.7635803 -2.3143044 9.709778 11.097076 6.546051 10.312675c-3.1637268 -0.78440094 -14.248566 -17.61154 -25.528442 -15.019077c-11.279846 2.5924644 -33.480743 14.141327 -42.150757 30.57386c-8.669983 16.432533 -15.948639 54.446968 -9.869202 68.02135c6.0794067 13.574387 35.686493 12.229401 46.345734 13.424957c10.659241 1.1955566 14.674744 -5.2096863 17.60971 -6.2516327" fill-rule="evenodd"></path></g></svg>
