<?xml version="1.0" standalone="yes"?>

<svg version="1.1" viewBox="0.0 0.0 960.0 720.0" fill="none" stroke="none" stroke-linecap="square" stroke-miterlimit="10" xmlns="http://www.w3.org/2000/svg" xmlns:xlink="http://www.w3.org/1999/xlink">
  <defs>
    <style>
      .goat-eye {
        fill: #ea9999;
      }
    </style>
  </defs>
  <clipPath id="p.0">
    <path d="m0 0l960.0 0l0 720.0l-960.0 0l0 -720.0z" clip-rule="nonzero"></path>
  </clipPath>
  <g clip-path="url(#p.0)">
    <path fill="#000000" fill-opacity="0.0" d="m0 0l960.0 0l0 720.0l-960.0 0z" fill-rule="evenodd"></path>
    <path fill="#000000" fill-opacity="0.0" d="m402.47476 706.1264l0 0" fill-rule="evenodd"></path>
    <path stroke="#000000" stroke-width="1.0" stroke-linejoin="round" stroke-linecap="butt" d="m402.47476 706.1264l0 0" fill-rule="evenodd"></path>
    <path fill="#000000" fill-opacity="0.0" d="m402.47476 706.1264l0 0" fill-rule="evenodd"></path>
    <path stroke="#000000" stroke-width="1.0" stroke-linejoin="round" stroke-linecap="butt" d="m402.47476 706.1264l0 0" fill-rule="evenodd"></path>
    <path class="goat-eye left-eye" d="m434.32962 279.10135l0 0c-13.043976 39.723602 -50.040497 66.64606 -91.85043 66.839874c-41.809967 0.19378662 -79.054474 -26.384583 -92.46614 -65.985535z" fill-rule="evenodd"></path>
    <path stroke="#000000" stroke-width="1.0" stroke-linejoin="round" stroke-linecap="butt" d="m434.32962 279.10135l0 0c-13.043976 39.723602 -50.040497 66.64606 -91.85043 66.839874c-41.809967 0.19378662 -79.054474 -26.384583 -92.46614 -65.985535z" fill-rule="evenodd"></path>
    <path class="goat-eye right-eye" d="m725.82043 279.10135l0 0c-13.044006 39.723602 -50.040466 66.64606 -91.850464 66.839874c-41.809937 0.19378662 -79.05444 -26.384583 -92.466125 -65.985535z" fill-rule="evenodd"></path>
    <path stroke="#000000" stroke-width="1.0" stroke-linejoin="round" stroke-linecap="butt" d="m725.82043 279.10135l0 0c-13.044006 39.723602 -50.040466 66.64606 -91.850464 66.839874c-41.809937 0.19378662 -79.05444 -26.384583 -92.466125 -65.985535z" fill-rule="evenodd"></path>
  </g>
</svg>