<?xml version="1.0" standalone="yes"?>

<svg version="1.1" viewBox="0.0 0.0 960.0 720.0" fill="none" stroke="none" stroke-linecap="square" stroke-miterlimit="10" xmlns="http://www.w3.org/2000/svg" xmlns:xlink="http://www.w3.org/1999/xlink">
  <defs>
    <style>
      .goat-eye {
        fill: #ea9999
      }
    </style>
  </defs>
  <clipPath id="p.0">
    <path d="m0 0l960.0 0l0 720.0l-960.0 0l0 -720.0z" clip-rule="nonzero"></path>
  </clipPath>
  <g clip-path="url(#p.0)">
    <path fill="#000000" fill-opacity="0.0" d="m0 0l960.0 0l0 720.0l-960.0 0z" fill-rule="evenodd"></path>
    <path fill="#000000" fill-opacity="0.0" d="m402.47476 706.1264l0 0" fill-rule="evenodd"></path>
    <path stroke="#000000" stroke-width="1.0" stroke-linejoin="round" stroke-linecap="butt" d="m402.47476 706.1264l0 0" fill-rule="evenodd"></path>
    <path fill="#000000" fill-opacity="0.0" d="m402.47476 706.1264l0 0" fill-rule="evenodd"></path>
    <path stroke="#000000" stroke-width="1.0" stroke-linejoin="round" stroke-linecap="butt" d="m402.47476 706.1264l0 0" fill-rule="evenodd"></path>
    <path class="goat-eye" d="m438.0703 263.28064l0 0c6.235382 -41.339066 -14.677734 -82.03096 -51.920563 -101.02492c-37.24286 -18.993942 -82.461 -12.02919 -112.26218 17.291275z" fill-rule="evenodd"></path>
    <path stroke="#000000" stroke-width="1.0" stroke-linejoin="round" stroke-linecap="butt" d="m438.0703 263.28064l0 0c6.235382 -41.339066 -14.677734 -82.03096 -51.920563 -101.02492c-37.24286 -18.993942 -82.461 -12.02919 -112.26218 17.291275z" fill-rule="evenodd"></path>
    <path class="goat-eye" d="m694.9953 173.55785l0 0c-32.377625 -26.45549 -78.05023 -29.22815 -113.39044 -6.8836365c-35.34015 22.344513 -52.420288 64.79384 -42.40448 105.38805z" fill-rule="evenodd"></path>
    <path stroke="#000000" stroke-width="1.0" stroke-linejoin="round" stroke-linecap="butt" d="m694.9953 173.55785l0 0c-32.377625 -26.45549 -78.05023 -29.22815 -113.39044 -6.8836365c-35.34015 22.344513 -52.420288 64.79384 -42.40448 105.38805z" fill-rule="evenodd"></path>
  </g>
</svg>

