<?xml version="1.0" standalone="yes"?>

<svg version="1.1" viewBox="0.0 0.0 960.0 720.0" fill="none" stroke="none" stroke-linecap="square" stroke-miterlimit="10" xmlns="http://www.w3.org/2000/svg" xmlns:xlink="http://www.w3.org/1999/xlink"><clipPath id="p.0"><path d="m0 0l960.0 0l0 720.0l-960.0 0l0 -720.0z" clip-rule="nonzero"></path></clipPath><g clip-path="url(#p.0)"><path fill="#000000" fill-opacity="0.0" d="m0 0l960.0 0l0 720.0l-960.0 0z" fill-rule="evenodd"></path><path fill="#000000" fill-opacity="0.0" d="m402.47476 706.1264l0 0" fill-rule="evenodd"></path><path stroke="#000000" stroke-width="1.0" stroke-linejoin="round" stroke-linecap="butt" d="m402.47476 706.1264l0 0" fill-rule="evenodd"></path><path fill="#000000" fill-opacity="0.0" d="m402.47476 706.1264l0 0" fill-rule="evenodd"></path><path stroke="#000000" stroke-width="1.0" stroke-linejoin="round" stroke-linecap="butt" d="m402.47476 706.1264l0 0" fill-rule="evenodd"></path><path fill="#cfe2f3" d="m332.92084 93.98116c1.0621033 -9.822838 24.68985 -31.59274 46.194214 -46.194225c21.504364 -14.60149 57.34558 -35.57393 82.83203 -41.4147c25.48642 -5.84077 46.1929 -3.7182853 70.08661 6.3700786c23.893677 10.088364 57.080505 40.354767 73.27557 54.160103c16.19513 13.805336 22.832886 22.56562 23.89502 28.67192c1.0621338 6.1063004 3.185913 4.2489014 -17.522278 7.9658737c-20.708252 3.7169724 -66.90381 13.805344 -106.72705 14.33596c-39.823273 0.5306244 -103.54025 -7.169731 -132.21262 -11.152229c-28.672363 -3.9825058 -40.883636 -2.9199448 -39.821503 -12.742783z" fill-rule="evenodd"></path><path stroke="#000000" stroke-width="1.0" stroke-linejoin="round" stroke-linecap="butt" d="m332.92084 93.98116c1.0621033 -9.822838 24.68985 -31.59274 46.194214 -46.194225c21.504364 -14.60149 57.34558 -35.57393 82.83203 -41.4147c25.48642 -5.84077 46.1929 -3.7182853 70.08661 6.3700786c23.893677 10.088364 57.080505 40.354767 73.27557 54.160103c16.19513 13.805336 22.832886 22.56562 23.89502 28.67192c1.0621338 6.1063004 3.185913 4.2489014 -17.522278 7.9658737c-20.708252 3.7169724 -66.90381 13.805344 -106.72705 14.33596c-39.823273 0.5306244 -103.54025 -7.169731 -132.21262 -11.152229c-28.672363 -3.9825058 -40.883636 -2.9199448 -39.821503 -12.742783z" fill-rule="evenodd"></path><path fill="#000000" fill-opacity="0.0" d="m353.6273 68.49606c15.846497 1.5927353 60.008667 8.759842 95.07889 9.556427c35.07019 0.7965927 88.84442 -3.4496918 115.342285 -4.7769012c26.497803 -1.3272095 36.370544 -2.6552887 43.644714 -3.186348" fill-rule="evenodd"></path><path stroke="#000000" stroke-width="1.0" stroke-linejoin="round" stroke-linecap="butt" d="m353.6273 68.49606c15.846497 1.5927353 60.008667 8.759842 95.07889 9.556427c35.07019 0.7965927 88.84442 -3.4496918 115.342285 -4.7769012c26.497803 -1.3272095 36.370544 -2.6552887 43.644714 -3.186348" fill-rule="evenodd"></path><path fill="#000000" fill-opacity="0.0" d="m363.58597 69.291336c-1.1950989 2.2567825 -5.2454224 8.894577 -7.170624 13.540688c-1.9252014 4.646103 -3.7834473 10.818459 -4.380554 14.335953c-0.59713745 3.5175018 0.664917 5.6408615 0.7978821 6.7690277" fill-rule="evenodd"></path><path stroke="#000000" stroke-width="1.0" stroke-linejoin="round" stroke-linecap="butt" d="m363.58597 69.291336c-1.1950989 2.2567825 -5.2454224 8.894577 -7.170624 13.540688c-1.9252014 4.646103 -3.7834473 10.818459 -4.380554 14.335953c-0.59713745 3.5175018 0.664917 5.6408615 0.7978821 6.7690277" fill-rule="evenodd"></path><path fill="#000000" fill-opacity="0.0" d="m385.08862 72.47769c-1.3276672 2.9868774 -6.505707 12.545059 -7.9658813 17.921257c-1.4602051 5.3762054 -0.66275024 11.946632 -0.7952881 14.33596" fill-rule="evenodd"></path><path stroke="#000000" stroke-width="1.0" stroke-linejoin="round" stroke-linecap="butt" d="m385.08862 72.47769c-1.3276672 2.9868774 -6.505707 12.545059 -7.9658813 17.921257c-1.4602051 5.3762054 -0.66275024 11.946632 -0.7952881 14.33596" fill-rule="evenodd"></path><path fill="#000000" fill-opacity="0.0" d="m400.2207 74.86614c-0.59713745 1.659668 -2.5870667 5.709976 -3.5827026 9.958008c-0.99560547 4.2480316 -2.1920166 11.481621 -2.3910522 15.530182c-0.19903564 4.0485535 0.9973755 7.3009644 1.1968384 8.761154" fill-rule="evenodd"></path><path stroke="#000000" stroke-width="1.0" stroke-linejoin="round" stroke-linecap="butt" d="m400.2207 74.86614c-0.59713745 1.659668 -2.5870667 5.709976 -3.5827026 9.958008c-0.99560547 4.2480316 -2.1920166 11.481621 -2.3910522 15.530182c-0.19903564 4.0485535 0.9973755 7.3009644 1.1968384 8.761154" fill-rule="evenodd"></path><path fill="#000000" fill-opacity="0.0" d="m421.32776 76.45932c-0.79660034 2.6548538 -3.9164429 11.349518 -4.779541 15.929131c-0.8630676 4.5796127 -0.59799194 8.29615 -0.39892578 11.548553c0.19903564 3.252411 1.3276367 6.638237 1.5931702 7.9658813" fill-rule="evenodd"></path><path stroke="#000000" stroke-width="1.0" stroke-linejoin="round" stroke-linecap="butt" d="m421.32776 76.45932c-0.79660034 2.6548538 -3.9164429 11.349518 -4.779541 15.929131c-0.8630676 4.5796127 -0.59799194 8.29615 -0.39892578 11.548553c0.19903564 3.252411 1.3276367 6.638237 1.5931702 7.9658813" fill-rule="evenodd"></path><path fill="#000000" fill-opacity="0.0" d="m474.69028 78.05249c0.19903564 4.314087 1.1942444 19.512688 1.1942444 25.884514c0 6.371834 -0.99520874 10.288719 -1.1942444 12.346458" fill-rule="evenodd"></path><path stroke="#000000" stroke-width="1.0" stroke-linejoin="round" stroke-linecap="butt" d="m474.69028 78.05249c0.19903564 4.314087 1.1942444 19.512688 1.1942444 25.884514c0 6.371834 -0.99520874 10.288719 -1.1942444 12.346458" fill-rule="evenodd"></path><path fill="#000000" fill-opacity="0.0" d="m517.3018 76.062996c1.4602051 4.5131226 7.3674927 20.441818 8.761169 27.078735c1.3936768 6.6369247 -0.3324585 10.618988 -0.39892578 12.742783" fill-rule="evenodd"></path><path stroke="#000000" stroke-width="1.0" stroke-linejoin="round" stroke-linecap="butt" d="m517.3018 76.062996c1.4602051 4.5131226 7.3674927 20.441818 8.761169 27.078735c1.3936768 6.6369247 -0.3324585 10.618988 -0.39892578 12.742783" fill-rule="evenodd"></path><path fill="#000000" fill-opacity="0.0" d="m555.13385 73.67191c1.2607422 3.583992 6.038086 15.331146 7.564331 21.503937c1.5262451 6.1727905 1.3276367 12.944008 1.5931396 15.532814" fill-rule="evenodd"></path><path stroke="#000000" stroke-width="1.0" stroke-linejoin="round" stroke-linecap="butt" d="m555.13385 73.67191c1.2607422 3.583992 6.038086 15.331146 7.564331 21.503937c1.5262451 6.1727905 1.3276367 12.944008 1.5931396 15.532814" fill-rule="evenodd"></path><path fill="#000000" fill-opacity="0.0" d="m586.5932 73.27559c0.9291382 2.4553833 4.446594 9.622047 5.574768 14.732285c1.1281738 5.110237 0.9951782 13.274277 1.1942139 15.929131" fill-rule="evenodd"></path><path stroke="#000000" stroke-width="1.0" stroke-linejoin="round" stroke-linecap="butt" d="m586.5932 73.27559c0.9291382 2.4553833 4.446594 9.622047 5.574768 14.732285c1.1281738 5.110237 0.9951782 13.274277 1.1942139 15.929131" fill-rule="evenodd"></path><path fill="#000000" fill-opacity="0.0" d="m604.91077 69.69029c1.6592407 3.1194153 8.09668 13.207787 9.955383 18.71653c1.8587036 5.508751 0.9973755 11.946632 1.1968384 14.33596" fill-rule="evenodd"></path><path stroke="#000000" stroke-width="1.0" stroke-linejoin="round" stroke-linecap="butt" d="m604.91077 69.69029c1.6592407 3.1194153 8.09668 13.207787 9.955383 18.71653c1.8587036 5.508751 0.9973755 11.946632 1.1968384 14.33596" fill-rule="evenodd"></path><path fill="#000000" fill-opacity="0.0" d="m448.40594 78.850395c-0.13253784 3.3184586 -0.8617554 13.870949 -0.79525757 19.910759c0.066467285 6.03981 0.9951782 13.606735 1.1942139 16.328087" fill-rule="evenodd"></path><path stroke="#000000" stroke-width="1.0" stroke-linejoin="round" stroke-linecap="butt" d="m448.40594 78.850395c-0.13253784 3.3184586 -0.8617554 13.870949 -0.79525757 19.910759c0.066467285 6.03981 0.9951782 13.606735 1.1942139 16.328087" fill-rule="evenodd"></path><path fill="#000000" fill-opacity="0.0" d="m497.38846 76.45932c0.9295654 4.712593 4.7143555 21.372704 5.577423 28.275589c0.8630676 6.9028854 -0.3324585 10.951439 -0.3989563 13.141731" fill-rule="evenodd"></path><path stroke="#000000" stroke-width="1.0" stroke-linejoin="round" stroke-linecap="butt" d="m497.38846 76.45932c0.9295654 4.712593 4.7143555 21.372704 5.577423 28.275589c0.8630676 6.9028854 -0.3324585 10.951439 -0.3989563 13.141731" fill-rule="evenodd"></path><path fill="#000000" fill-opacity="0.0" d="m434.86624 77.656166c-0.8626404 3.3849564 -4.9768066 14.336395 -5.1758423 20.309715c-0.19903564 5.9733124 3.3180237 12.941818 3.9816284 15.530182" fill-rule="evenodd"></path><path stroke="#000000" stroke-width="1.0" stroke-linejoin="round" stroke-linecap="butt" d="m434.86624 77.656166c-0.8626404 3.3849564 -4.9768066 14.336395 -5.1758423 20.309715c-0.19903564 5.9733124 3.3180237 12.941818 3.9816284 15.530182" fill-rule="evenodd"></path><path fill="#000000" fill-opacity="0.0" d="m538.0079 74.86614c1.5266724 4.314522 7.5669556 19.448822 9.160095 25.887138c1.5932007 6.438324 0.3324585 10.618988 0.39898682 12.742783" fill-rule="evenodd"></path><path stroke="#000000" stroke-width="1.0" stroke-linejoin="round" stroke-linecap="butt" d="m538.0079 74.86614c1.5266724 4.314522 7.5669556 19.448822 9.160095 25.887138c1.5932007 6.438324 0.3324585 10.618988 0.39898682 12.742783" fill-rule="evenodd"></path><path fill="#000000" fill-opacity="0.0" d="m484.2467 7.1679792c-4.977661 0.9291334 -18.384064 1.5262461 -29.86612 5.5748034c-11.482086 4.0485554 -26.614624 12.012686 -39.026245 18.716536c-12.411652 6.703848 -27.279968 15.798338 -35.443573 21.50656c-8.163605 5.7082253 -11.281708 10.618988 -13.538055 12.742786" fill-rule="evenodd"></path><path stroke="#000000" stroke-width="1.0" stroke-linejoin="round" stroke-linecap="butt" d="m484.2467 7.1679792c-4.977661 0.9291334 -18.384064 1.5262461 -29.86612 5.5748034c-11.482086 4.0485554 -26.614624 12.012686 -39.026245 18.716536c-12.411652 6.703848 -27.279968 15.798338 -35.443573 21.50656c-8.163605 5.7082253 -11.281708 10.618988 -13.538055 12.742786" fill-rule="evenodd"></path><path fill="#000000" fill-opacity="0.0" d="m496.59317 7.1679792c4.5796204 1.194663 18.650482 3.0529308 27.477692 7.1679792c8.827209 4.1150475 16.857422 10.486876 25.485596 17.522308c8.628174 7.035433 20.575195 18.982504 26.283447 24.69029c5.708191 5.7077866 6.6382446 7.963688 7.9658813 9.556431" fill-rule="evenodd"></path><path stroke="#000000" stroke-width="1.0" stroke-linejoin="round" stroke-linecap="butt" d="m496.59317 7.1679792c4.5796204 1.194663 18.650482 3.0529308 27.477692 7.1679792c8.827209 4.1150475 16.857422 10.486876 25.485596 17.522308c8.628174 7.035433 20.575195 18.982504 26.283447 24.69029c5.708191 5.7077866 6.6382446 7.963688 7.9658813 9.556431" fill-rule="evenodd"></path><path fill="#000000" fill-opacity="0.0" d="m490.61942 9.95538c-0.9291382 4.8388634 -4.6456604 19.355453 -5.5747986 29.033184c-0.9291382 9.677727 -0.0664978 23.186146 0 29.03318c0.0664978 5.8470383 0.3324585 5.0408554 0.3989563 6.0490265" fill-rule="evenodd"></path><path stroke="#000000" stroke-width="1.0" stroke-linejoin="round" stroke-linecap="butt" d="m490.61942 9.95538c-0.9291382 4.8388634 -4.6456604 19.355453 -5.5747986 29.033184c-0.9291382 9.677727 -0.0664978 23.186146 0 29.03318c0.0664978 5.8470383 0.3324585 5.0408554 0.3989563 6.0490265" fill-rule="evenodd"></path><path fill="#000000" fill-opacity="0.0" d="m496.1942 9.95538c2.9868774 1.7922134 11.549438 5.775153 17.921265 10.753282c6.371826 4.9781265 15.066528 13.009623 20.309692 19.115484c5.243225 6.1058617 8.760315 12.674541 11.149658 17.519688c2.3892822 4.8451424 2.6552734 9.625984 3.1863403 11.551178" fill-rule="evenodd"></path><path stroke="#000000" stroke-width="1.0" stroke-linejoin="round" stroke-linecap="butt" d="m496.1942 9.95538c2.9868774 1.7922134 11.549438 5.775153 17.921265 10.753282c6.371826 4.9781265 15.066528 13.009623 20.309692 19.115484c5.243225 6.1058617 8.760315 12.674541 11.149658 17.519688c2.3892822 4.8451424 2.6552734 9.625984 3.1863403 11.551178" fill-rule="evenodd"></path><path fill="#000000" fill-opacity="0.0" d="m485.04416 11.149607c-4.5796204 1.7922134 -14.800537 4.3814516 -27.477692 10.753281c-12.677155 6.371828 -37.368347 20.17673 -48.585297 27.47769c-11.21698 7.3009644 -15.597107 13.606735 -18.716553 16.328087" fill-rule="evenodd"></path><path stroke="#000000" stroke-width="1.0" stroke-linejoin="round" stroke-linecap="butt" d="m485.04416 11.149607c-4.5796204 1.7922134 -14.800537 4.3814516 -27.477692 10.753281c-12.677155 6.371828 -37.368347 20.17673 -48.585297 27.47769c-11.21698 7.3009644 -15.597107 13.606735 -18.716553 16.328087" fill-rule="evenodd"></path><path fill="#000000" fill-opacity="0.0" d="m493.40683 11.152241c3.252411 4.606992 14.868347 18.970465 19.514435 27.641949c4.646118 8.671486 6.703003 19.170498 8.362183 24.386963c1.6592407 5.216461 1.3276978 5.759857 1.5932007 6.911827" fill-rule="evenodd"></path><path stroke="#000000" stroke-width="1.0" stroke-linejoin="round" stroke-linecap="butt" d="m493.40683 11.152241c3.252411 4.606992 14.868347 18.970465 19.514435 27.641949c4.646118 8.671486 6.703003 19.170498 8.362183 24.386963c1.6592407 5.216461 1.3276978 5.759857 1.5932007 6.911827" fill-rule="evenodd"></path><path fill="#000000" fill-opacity="0.0" d="m488.72845 10.750656c-4.171631 3.6502466 -19.216553 15.443459 -25.029785 21.901482c-5.813263 6.4580193 -6.7034607 10.739773 -9.84967 16.84665c-3.1461792 6.1068764 -7.522888 16.495506 -9.027496 19.79461" fill-rule="evenodd"></path><path stroke="#000000" stroke-width="1.0" stroke-linejoin="round" stroke-linecap="butt" d="m488.72845 10.750656c-4.171631 3.6502466 -19.216553 15.443459 -25.029785 21.901482c-5.813263 6.4580193 -6.7034607 10.739773 -9.84967 16.84665c-3.1461792 6.1068764 -7.522888 16.495506 -9.027496 19.79461" fill-rule="evenodd"></path></g></svg>

